<svg id="Layer_1" data-name="Layer 1" xmlns="http://www.w3.org/2000/svg" viewBox="0 0 150 84.9"><defs><style>.cls-1{fill:#225f94;}</style></defs><title>Untitled-1</title><path class="cls-1" d="M144.24,5.43H31.16V55.35H144.24V5.43ZM60.17,48.33l-1.75-7.6H48.88l-1.95,7.6H40.29l8.94-36.07h8.84l8.69,36.07H60.17ZM84.4,27.44a12.94,12.94,0,0,0-3.35-.7,3,3,0,0,0-3.1,3V48.33H71.66V21.15h6.14v3.6h0.1c1.45-2.7,3.35-4.1,6.49-4.1v6.79ZM109,38.53c0,7.2-3.7,10.29-10,10.29s-10-3.1-10-10.29V30.94c0-7.19,3.7-10.29,10-10.29,6.14,0,9.84,3,9.94,9.89h-6.25v-1.2c0-2.1-1.5-3.2-3.69-3.2s-3.7,1.1-3.7,3.2V40.13c0,2.1,1.5,3.2,3.7,3.2s3.69-1.1,3.69-3.2v-1.7H109v0.1Zm19.53,9.79c-0.15-.7-0.25-1.55-0.45-2.65a10.37,10.37,0,0,1-7.49,3.15c-3.8,0-6.25-2.1-6.25-6.5,0-6.29,6-9,13.84-11.34V29A2.94,2.94,0,0,0,125,25.75a3.38,3.38,0,0,0-3.5,3.35h-6.29c0.45-6,5-8.44,10.09-8.44,6.69,0,9.24,3.4,9.24,8.24V46.13a8,8,0,0,0,.35,2.2h-6.3Zm-44,17.54-1,4.38h2.06l-1-4.38h0Zm-14.05-.51H69.75v7.18h0.72c1.14,0,1.8-.54,1.8-2.16V67.52c0-1.53-.51-2.16-1.8-2.16m50.19-24.08a2.61,2.61,0,0,0,2.8,2.85c1.9,0,3.25-1,4.74-2.5V35c-3.75,1.3-7.54,3.4-7.54,6.25M28.46,65.21c-0.83,0-1.35.33-1.35,1.53v4.41c0,1.2.53,1.53,1.35,1.53s1.35-.33,1.35-1.53V66.74c0-1.2-.52-1.53-1.35-1.53M0,84.9H150V0H0V84.9Zm146.94-2.76H2.69V2.73H146.94V82.14ZM28.46,5.43H5.39V55.35H28.46V5.43ZM22.75,44.86h-9v2.42H11.91V40.37h1.83v2.42h9v2.07Zm0-16.1H18.06V31.7h4.68v2.07H11.91V31.7h4.32V28.77H11.91V26.7H22.75v2.07Zm0-9.31H11.91V13.78h1.83v3.6h2.49V14.64h1.83v2.75h2.85V13.63h1.83v5.83ZM144.24,58H5.39V79.44H144.24V58ZM18.7,65.36H15.37v2.49H18v1.83H15.37v4.68H13.3V63.53H18.7v1.83Zm13.18,5.52c0,2.67-1.41,3.63-3.42,3.63S25,73.56,25,70.88V67c0-2.67,1.41-3.63,3.42-3.63s3.42,1,3.42,3.63v3.87ZM46,71.12c0,2.39-1.41,3.39-3.54,3.39s-3.53-1-3.53-3.39v-7.6H41v7.58a1.47,1.47,0,1,0,2.93,0V63.53H46v7.6Zm14.43,3.24h-2l-3.17-7h0v7H53.37V63.53h2.27L58.52,70h0V63.53h1.89V74.37Zm13.9-3.75c-0.09,2.73-1.41,3.75-3.78,3.75H67.68V63.53h2.88c2.37,0,3.69,1,3.78,3.75v3.33Zm12.18,3.75L86,72.09H83.13l-0.59,2.28h-2l2.69-10.84h2.66L88.5,74.37h-2Zm13.81-9H97.92v9H95.85v-9H93.43V63.53h6.91v1.83Zm8.68,9h-2.07V63.53H109V74.37Zm13.9-3.48c0,2.67-1.41,3.63-3.42,3.63s-3.42-1-3.42-3.63V67c0-2.67,1.41-3.63,3.42-3.63s3.42,1,3.42,3.63v3.87ZM137,74.37h-2l-3.17-7h0v7H130V63.53h2.27L135.12,70h0V63.53H137V74.37ZM53.53,20.05l-3.4,14.59H57L53.63,20.05h-0.1Zm66,45.16c-0.83,0-1.35.33-1.35,1.53v4.41c0,1.2.53,1.53,1.35,1.53s1.35-.33,1.35-1.53V66.74c0-1.2-.53-1.53-1.35-1.53" transform="translate(0 0)"/></svg>