<?xml version="1.0" encoding="utf-8"?>
<!-- Generator: Adobe Illustrator 20.0.0, SVG Export Plug-In . SVG Version: 6.00 Build 0)  -->
<svg version="1.1" id="Layer_1" xmlns="http://www.w3.org/2000/svg" xmlns:xlink="http://www.w3.org/1999/xlink" x="0px" y="0px"
	 viewBox="0 0 79.3 65.3" style="enable-background:new 0 0 79.3 65.3;" xml:space="preserve">
<style type="text/css">
	.st0{fill:none;stroke:#6F993F;stroke-linecap:round;stroke-linejoin:round;stroke-miterlimit:10;}
	.st1{fill:none;stroke:#6F993F;stroke-miterlimit:10;}
</style>
<polyline class="st0" points="61.2,10 61.2,20.5 71.7,20.5 "/>
<path class="st1" d="M46.6,22H18.5c-0.6,0-1-0.4-1-1v-4.6c0-0.6,0.4-1,1-1h28.1c0.6,0,1,0.4,1,1V21C47.6,21.5,47.1,22,46.6,22z"/>
<path class="st1" d="M28.6,42.3H18.5c-0.6,0-1-0.4-1-1V26.7c0-0.6,0.4-1,1-1h10.1c0.6,0,1,0.4,1,1v14.5
	C29.6,41.8,29.2,42.3,28.6,42.3z"/>
<line class="st0" x1="33.1" y1="25.7" x2="61.6" y2="25.7"/>
<line class="st0" x1="33.1" y1="28.9" x2="61.6" y2="28.9"/>
<line class="st0" x1="33.1" y1="34" x2="40.2" y2="34"/>
<line class="st0" x1="43.6" y1="34" x2="50.7" y2="34"/>
<line class="st0" x1="54.1" y1="34" x2="61.2" y2="34"/>
<line class="st0" x1="33.1" y1="37.2" x2="40.2" y2="37.2"/>
<line class="st0" x1="33.1" y1="40.3" x2="40.2" y2="40.3"/>
<line class="st0" x1="43.6" y1="37.2" x2="50.7" y2="37.2"/>
<line class="st0" x1="43.6" y1="40.3" x2="50.7" y2="40.3"/>
<line class="st0" x1="54.1" y1="37.2" x2="61.2" y2="37.2"/>
<line class="st0" x1="54.1" y1="40.3" x2="61.2" y2="40.3"/>
<path class="st1" d="M60.2,49.8h-4.8c-0.6,0-1-0.4-1-1v-4.6c0-0.6,0.4-1,1-1h4.8c0.6,0,1,0.4,1,1v4.6C61.2,49.4,60.7,49.8,60.2,49.8
	z"/>
<line class="st0" x1="18.1" y1="45.2" x2="29" y2="45.2"/>
<line class="st0" x1="18.1" y1="48.3" x2="29" y2="48.3"/>
<line class="st0" x1="33.1" y1="43.5" x2="40.2" y2="43.5"/>
<line class="st0" x1="33.1" y1="46.7" x2="40.2" y2="46.7"/>
<line class="st0" x1="43.6" y1="43.5" x2="50.7" y2="43.5"/>
<line class="st0" x1="43.6" y1="46.7" x2="50.7" y2="46.7"/>
<line class="st0" x1="33.1" y1="49.8" x2="40.2" y2="49.8"/>
<line class="st0" x1="43.6" y1="49.8" x2="50.7" y2="49.8"/>
<path class="st0" d="M72.5,42.3l0.1,8.9v0c0,2.4-1.9,4.3-4.3,4.3H11c-2.4,0-4.3-1.9-4.3-4.3V15.3h4.5"/>
<polyline class="st0" points="11.5,55.3 11.5,9.9 61.6,9.9 66.9,15.2 72.3,20.6 72.5,42.3 "/>
</svg>
