<?xml version="1.0" encoding="utf-8"?>
<!-- Generator: Adobe Illustrator 20.0.0, SVG Export Plug-In . SVG Version: 6.00 Build 0)  -->
<svg version="1.1" id="Layer_1" xmlns="http://www.w3.org/2000/svg" xmlns:xlink="http://www.w3.org/1999/xlink" x="0px" y="0px"
	 viewBox="0 0 79.3 65.3" style="enable-background:new 0 0 79.3 65.3;" xml:space="preserve">
<style type="text/css">
	.st0{fill:none;stroke:#6F993F;stroke-linecap:round;stroke-linejoin:round;stroke-miterlimit:10;}
	.st1{fill:none;stroke:#6F993F;stroke-miterlimit:10;}
	.st2{fill:#FFFFFF;stroke:#6F993F;stroke-linecap:round;stroke-linejoin:round;stroke-miterlimit:10;}
	.st3{fill:#6F993F;}
</style>
<g>
	<polyline class="st0" points="-260.8,86 -260.8,97.5 -248.3,97.5 	"/>
	<path class="st1" d="M-274.2,96.8h-28.1c-0.6,0-1-0.4-1-1v-4.6c0-0.6,0.4-1,1-1h28.1c0.6,0,1,0.4,1,1v4.6
		C-273.2,96.4-273.7,96.8-274.2,96.8z"/>
	<path class="st1" d="M-292.1,117.2h-10.1c-0.6,0-1-0.4-1-1v-14.5c0-0.6,0.4-1,1-1h10.1c0.6,0,1,0.4,1,1v14.5
		C-291.1,116.7-291.6,117.2-292.1,117.2z"/>
	<line class="st0" x1="-287.6" y1="100.6" x2="-259.2" y2="100.6"/>
	<line class="st0" x1="-287.6" y1="103.8" x2="-259.2" y2="103.8"/>
	<line class="st0" x1="-287.6" y1="108.9" x2="-280.6" y2="108.9"/>
	<line class="st0" x1="-277.1" y1="108.9" x2="-270.1" y2="108.9"/>
	<line class="st0" x1="-266.6" y1="108.9" x2="-259.6" y2="108.9"/>
	<line class="st0" x1="-287.6" y1="112.1" x2="-280.6" y2="112.1"/>
	<line class="st0" x1="-287.6" y1="115.2" x2="-280.6" y2="115.2"/>
	<line class="st0" x1="-277.1" y1="112.1" x2="-270.1" y2="112.1"/>
	<line class="st0" x1="-277.1" y1="115.2" x2="-270.1" y2="115.2"/>
	<line class="st0" x1="-266.6" y1="112.1" x2="-259.6" y2="112.1"/>
	<line class="st0" x1="-266.6" y1="115.2" x2="-259.6" y2="115.2"/>
	<path class="st1" d="M-260.6,124.7h-4.8c-0.6,0-1-0.4-1-1v-4.6c0-0.6,0.4-1,1-1h4.8c0.6,0,1,0.4,1,1v4.6
		C-259.6,124.3-260,124.7-260.6,124.7z"/>
	<line class="st0" x1="-302.7" y1="120.1" x2="-291.7" y2="120.1"/>
	<line class="st0" x1="-302.7" y1="123.2" x2="-291.7" y2="123.2"/>
	<line class="st0" x1="-287.6" y1="118.4" x2="-280.6" y2="118.4"/>
	<line class="st0" x1="-287.6" y1="121.6" x2="-280.6" y2="121.6"/>
	<line class="st0" x1="-277.1" y1="118.4" x2="-270.1" y2="118.4"/>
	<line class="st0" x1="-277.1" y1="121.6" x2="-270.1" y2="121.6"/>
	<line class="st0" x1="-287.6" y1="124.7" x2="-280.6" y2="124.7"/>
	<line class="st0" x1="-277.1" y1="124.7" x2="-270.1" y2="124.7"/>
	<path class="st0" d="M-248.2,117.1l0.1,8.9v0c0,2.4-1.9,4.3-4.3,4.3h-57.3c-2.4,0-4.3-1.9-4.3-4.3V90.2h4.5"/>
	<polyline class="st0" points="-309.3,130.2 -309.3,84.8 -259.2,84.8 -253.8,90.1 -248.4,95.5 -248.2,117.1 	"/>
</g>
<g>
	<path class="st2" d="M66.1,59.4H6.8c-1.7,0-3-1.3-3-3V16.9c0-1.7,1.3-3,3-3h59.3c1.7,0,3,1.3,3,3v39.5
		C69.1,58.1,67.8,59.4,66.1,59.4z"/>
	<path class="st2" d="M68.5,58.8l-31-24.3c-0.6-0.5-1.6-0.5-2.2,0l-31,24.3"/>
	<polyline class="st2" points="3.8,18.6 36.4,44.7 69.1,18.6 	"/>
	<circle class="st2" cx="68.5" cy="13" r="7"/>
	<g>
		<path class="st3" d="M67.8,10.8L66.2,11c0-0.4,0.1-0.9,0.2-1.1c0.5-0.2,1.7-0.5,3-0.5v5c0.4,0,1,0.2,1.3,0.3
			c0,0.1,0.1,0.4,0.1,0.7c0,0.1,0,0.2,0,0.3h-4.4c0-0.3,0.2-0.7,0.3-0.9c0.3-0.1,0.8-0.2,1.1-0.3V10.8z"/>
	</g>
</g>
</svg>
