<?xml version="1.0" encoding="utf-8"?>
<!-- Generator: Adobe Illustrator 20.0.0, SVG Export Plug-In . SVG Version: 6.00 Build 0)  -->
<svg version="1.1" id="Layer_1" xmlns="http://www.w3.org/2000/svg" xmlns:xlink="http://www.w3.org/1999/xlink" x="0px" y="0px"
	 viewBox="0 0 79.3 65.3" style="enable-background:new 0 0 79.3 65.3;" xml:space="preserve">
<style type="text/css">
	.st0{fill:#FFFFFF;stroke:#6F993F;stroke-linecap:round;stroke-linejoin:round;stroke-miterlimit:10;}
	.st1{fill:none;stroke:#6F993F;stroke-miterlimit:10;}
	.st2{fill:none;stroke:#6F993F;stroke-linecap:round;stroke-miterlimit:10;}
	.st3{fill:none;stroke:#6F993F;stroke-linecap:round;stroke-miterlimit:10;stroke-dasharray:3,5;}
	.st4{fill:none;}
	.st5{fill:#6F993F;}
	.st6{font-family:'TisaPro';}
	.st7{font-size:20.1117px;}
	.st8{letter-spacing:1;}
	.st9{fill:none;stroke:#6F993F;stroke-linecap:round;stroke-linejoin:round;stroke-miterlimit:10;}
</style>
<g>
	<path class="st0" d="M70.1,58.4H9.2c-1.7,0-3-1.3-3-3V14.8c0-1.7,1.3-3,3-3h60.9c1.7,0,3,1.3,3,3v40.6
		C73.1,57.1,71.8,58.4,70.1,58.4z"/>
	<line class="st1" x1="6.2" y1="20" x2="73.1" y2="20"/>
	<g>
		<g>
			<line class="st2" x1="6.7" y1="16.5" x2="7.7" y2="16.5"/>
			<line class="st3" x1="13.7" y1="16.5" x2="68.7" y2="16.5"/>
			<line class="st2" x1="70.7" y1="16.5" x2="72.7" y2="16.5"/>
		</g>
	</g>
	<rect x="11.6" y="6.9" class="st0" width="5.3" height="6.6"/>
	<rect x="6.2" y="30.8" class="st4" width="66.9" height="16.8"/>
	<text transform="matrix(1 0 0 1 27.7004 45.5397)" class="st5 st6 st7 st8">31</text>
	<rect x="28.6" y="6.9" class="st0" width="5.3" height="6.6"/>
	<rect x="45.7" y="6.9" class="st0" width="5.3" height="6.6"/>
	<rect x="62.7" y="6.9" class="st0" width="5.3" height="6.6"/>
	<line class="st3" x1="6.3" y1="16.5" x2="9.9" y2="16.5"/>
	<line class="st3" x1="69.3" y1="16.5" x2="72.9" y2="16.5"/>
</g>
<g>
	<polyline class="st9" points="-260.8,86 -260.8,97.5 -248.3,97.5 	"/>
	<path class="st1" d="M-274.2,96.8h-28.1c-0.6,0-1-0.4-1-1v-4.6c0-0.6,0.4-1,1-1h28.1c0.6,0,1,0.4,1,1v4.6
		C-273.2,96.4-273.7,96.8-274.2,96.8z"/>
	<path class="st1" d="M-292.1,117.2h-10.1c-0.6,0-1-0.4-1-1v-14.5c0-0.6,0.4-1,1-1h10.1c0.6,0,1,0.4,1,1v14.5
		C-291.1,116.7-291.6,117.2-292.1,117.2z"/>
	<line class="st9" x1="-287.6" y1="100.6" x2="-259.2" y2="100.6"/>
	<line class="st9" x1="-287.6" y1="103.8" x2="-259.2" y2="103.8"/>
	<line class="st9" x1="-287.6" y1="108.9" x2="-280.6" y2="108.9"/>
	<line class="st9" x1="-277.1" y1="108.9" x2="-270.1" y2="108.9"/>
	<line class="st9" x1="-266.6" y1="108.9" x2="-259.6" y2="108.9"/>
	<line class="st9" x1="-287.6" y1="112.1" x2="-280.6" y2="112.1"/>
	<line class="st9" x1="-287.6" y1="115.2" x2="-280.6" y2="115.2"/>
	<line class="st9" x1="-277.1" y1="112.1" x2="-270.1" y2="112.1"/>
	<line class="st9" x1="-277.1" y1="115.2" x2="-270.1" y2="115.2"/>
	<line class="st9" x1="-266.6" y1="112.1" x2="-259.6" y2="112.1"/>
	<line class="st9" x1="-266.6" y1="115.2" x2="-259.6" y2="115.2"/>
	<path class="st1" d="M-260.6,124.7h-4.8c-0.6,0-1-0.4-1-1v-4.6c0-0.6,0.4-1,1-1h4.8c0.6,0,1,0.4,1,1v4.6
		C-259.6,124.3-260,124.7-260.6,124.7z"/>
	<line class="st9" x1="-302.7" y1="120.1" x2="-291.7" y2="120.1"/>
	<line class="st9" x1="-302.7" y1="123.2" x2="-291.7" y2="123.2"/>
	<line class="st9" x1="-287.6" y1="118.4" x2="-280.6" y2="118.4"/>
	<line class="st9" x1="-287.6" y1="121.6" x2="-280.6" y2="121.6"/>
	<line class="st9" x1="-277.1" y1="118.4" x2="-270.1" y2="118.4"/>
	<line class="st9" x1="-277.1" y1="121.6" x2="-270.1" y2="121.6"/>
	<line class="st9" x1="-287.6" y1="124.7" x2="-280.6" y2="124.7"/>
	<line class="st9" x1="-277.1" y1="124.7" x2="-270.1" y2="124.7"/>
	<path class="st9" d="M-248.2,117.1l0.1,8.9v0c0,2.4-1.9,4.3-4.3,4.3h-57.3c-2.4,0-4.3-1.9-4.3-4.3V90.2h4.5"/>
	<polyline class="st9" points="-309.3,130.2 -309.3,84.8 -259.2,84.8 -253.8,90.1 -248.4,95.5 -248.2,117.1 	"/>
</g>
<path class="st0" d="M-29.8,36.9h-59.3c-1.7,0-3-1.3-3-3V-5.7c0-1.7,1.3-3,3-3h59.3c1.7,0,3,1.3,3,3v39.5
	C-26.8,35.5-28.1,36.9-29.8,36.9z"/>
<path class="st0" d="M-27.4,36.2l-31-24.3c-0.6-0.5-1.6-0.5-2.2,0l-31,24.3"/>
<polyline class="st0" points="-92.1,-3.9 -59.4,22.2 -26.8,-3.9 "/>
<circle class="st0" cx="-27.4" cy="-9.5" r="7"/>
<g>
	<path class="st5" d="M-28-11.7l-1.6,0.2c0-0.4,0.1-0.9,0.2-1.1c0.5-0.2,1.7-0.5,3-0.5v5c0.4,0,1,0.2,1.3,0.3c0,0.1,0.1,0.4,0.1,0.7
		c0,0.1,0,0.2,0,0.3h-4.4c0-0.3,0.2-0.7,0.3-0.9c0.3-0.1,0.8-0.2,1.1-0.3V-11.7z"/>
</g>
</svg>
